<svg xmlns="http://www.w3.org/2000/svg" version="1.1" xmlns:xlink="http://www.w3.org/1999/xlink" xmlns:svgjs="http://svgjs.dev/svgjs" viewBox="0 0 800 800"><circle r="11.5" cx="334" cy="234" fill="hsl(294, 15%, 26%)" opacity="0.28"></circle><circle r="7" cx="29" cy="254" fill="hsl(81, 15%, 26%)" opacity="0.26"></circle><circle r="8.5" cx="573" cy="131" fill="hsl(208, 15%, 26%)" opacity="0.20"></circle><circle r="4.5" cx="111" cy="538" fill="hsl(134, 15%, 26%)" opacity="0.18"></circle><circle r="11" cx="290" cy="727" fill="hsl(262, 15%, 26%)" opacity="0.57"></circle><circle r="14" cx="340" cy="675" fill="hsl(302, 15%, 26%)" opacity="0.66"></circle><circle r="11" cx="664" cy="634" fill="hsl(198, 15%, 26%)" opacity="0.44"></circle><circle r="9.5" cx="424" cy="441" fill="hsl(320, 15%, 26%)" opacity="0.68"></circle><circle r="14.5" cx="683" cy="229" fill="hsl(199, 15%, 26%)" opacity="0.62"></circle><circle r="11" cx="498" cy="171" fill="hsl(253, 15%, 26%)" opacity="0.16"></circle><circle r="7.5" cx="67" cy="519" fill="hsl(110, 15%, 26%)" opacity="0.23"></circle><circle r="13.5" cx="302" cy="172" fill="hsl(264, 15%, 26%)" opacity="0.70"></circle><circle r="7" cx="562" cy="435" fill="hsl(228, 15%, 26%)" opacity="0.72"></circle><circle r="8" cx="160" cy="338" fill="hsl(159, 15%, 26%)" opacity="0.96"></circle><circle r="11.5" cx="764" cy="331" fill="hsl(202, 15%, 26%)" opacity="0.99"></circle><circle r="9" cx="146" cy="621" fill="hsl(153, 15%, 26%)" opacity="0.61"></circle><circle r="10.5" cx="726" cy="540" fill="hsl(202, 15%, 26%)" opacity="0.58"></circle><circle r="11" cx="670" cy="441" fill="hsl(198, 15%, 26%)" opacity="0.25"></circle><circle r="12.5" cx="360" cy="628" fill="hsl(310, 15%, 26%)" opacity="0.62"></circle><circle r="9.5" cx="546" cy="735" fill="hsl(238, 15%, 26%)" opacity="0.53"></circle><circle r="6.5" cx="61" cy="195" fill="hsl(101, 15%, 26%)" opacity="0.62"></circle><circle r="8" cx="545" cy="787" fill="hsl(238, 15%, 26%)" opacity="0.85"></circle><circle r="11" cx="283" cy="594" fill="hsl(251, 15%, 26%)" opacity="0.83"></circle><circle r="9" cx="258" cy="346" fill="hsl(228, 15%, 26%)" opacity="0.74"></circle><circle r="16.5" cx="426" cy="515" fill="hsl(317, 15%, 26%)" opacity="0.24"></circle><circle r="10" cx="471" cy="503" fill="hsl(298, 15%, 26%)" opacity="0.49"></circle><circle r="12.5" cx="492" cy="258" fill="hsl(279, 15%, 26%)" opacity="0.91"></circle><circle r="6" cx="71" cy="642" fill="hsl(110, 15%, 26%)" opacity="0.37"></circle><circle r="13" cx="714" cy="354" fill="hsl(201, 15%, 26%)" opacity="0.66"></circle><circle r="9" cx="185" cy="416" fill="hsl(173, 15%, 26%)" opacity="0.45"></circle><circle r="8.5" cx="481" cy="86" fill="hsl(137, 15%, 26%)" opacity="0.43"></circle><circle r="6" cx="500" cy="14" fill="hsl(130, 15%, 26%)" opacity="0.62"></circle><circle r="11" cx="186" cy="620" fill="hsl(173, 15%, 26%)" opacity="0.22"></circle><circle r="6" cx="481" cy="51" fill="hsl(114, 15%, 26%)" opacity="0.32"></circle><circle r="9.5" cx="104" cy="462" fill="hsl(134, 15%, 26%)" opacity="0.76"></circle><circle r="11.5" cx="402" cy="166" fill="hsl(291, 15%, 26%)" opacity="0.50"></circle><circle r="14" cx="569" cy="663" fill="hsl(220, 15%, 26%)" opacity="0.67"></circle><circle r="13" cx="237" cy="429" fill="hsl(207, 15%, 26%)" opacity="0.44"></circle><circle r="9.5" cx="92" cy="777" fill="hsl(126, 15%, 26%)" opacity="0.73"></circle><circle r="4.5" cx="455" cy="45" fill="hsl(89, 15%, 26%)" opacity="0.86"></circle><circle r="12" cx="368" cy="165" fill="hsl(291, 15%, 26%)" opacity="0.69"></circle><circle r="14" cx="424" cy="121" fill="hsl(197, 15%, 26%)" opacity="0.82"></circle><circle r="8.5" cx="136" cy="494" fill="hsl(147, 15%, 26%)" opacity="1.00"></circle><circle r="11" cx="745" cy="655" fill="hsl(202, 15%, 26%)" opacity="0.17"></circle><circle r="10.5" cx="224" cy="749" fill="hsl(197, 15%, 26%)" opacity="0.22"></circle><circle r="12" cx="588" cy="22" fill="hsl(218, 15%, 26%)" opacity="0.34"></circle><circle r="8.5" cx="148" cy="275" fill="hsl(153, 15%, 26%)" opacity="0.41"></circle><circle r="13.5" cx="265" cy="391" fill="hsl(239, 15%, 26%)" opacity="0.19"></circle><circle r="7" cx="274" cy="788" fill="hsl(239, 15%, 26%)" opacity="0.83"></circle><circle r="4.5" cx="27" cy="393" fill="hsl(81, 15%, 26%)" opacity="0.63"></circle><circle r="18" cx="327" cy="772" fill="hsl(294, 15%, 26%)" opacity="0.47"></circle><circle r="16.5" cx="148" cy="96" fill="hsl(215, 15%, 26%)" opacity="0.48"></circle><circle r="9" cx="746" cy="610" fill="hsl(202, 15%, 26%)" opacity="0.49"></circle><circle r="6.5" cx="524" cy="146" fill="hsl(215, 15%, 26%)" opacity="0.51"></circle><circle r="11" cx="64" cy="41" fill="hsl(211, 15%, 26%)" opacity="0.83"></circle><circle r="11" cx="753" cy="778" fill="hsl(202, 15%, 26%)" opacity="0.93"></circle><circle r="14" cx="648" cy="552" fill="hsl(197, 15%, 26%)" opacity="0.17"></circle><circle r="8" cx="122" cy="575" fill="hsl(140, 15%, 26%)" opacity="0.28"></circle><circle r="6" cx="403" cy="19" fill="hsl(44, 15%, 26%)" opacity="0.91"></circle><circle r="10" cx="634" cy="342" fill="hsl(198, 15%, 26%)" opacity="0.90"></circle><circle r="11.5" cx="743" cy="245" fill="hsl(202, 15%, 26%)" opacity="0.27"></circle><circle r="8.5" cx="576" cy="778" fill="hsl(213, 15%, 26%)" opacity="0.78"></circle><circle r="12.5" cx="577" cy="312" fill="hsl(213, 15%, 26%)" opacity="0.28"></circle><circle r="6.5" cx="47" cy="225" fill="hsl(91, 15%, 26%)" opacity="0.92"></circle><circle r="8.5" cx="191" cy="268" fill="hsl(180, 15%, 26%)" opacity="0.42"></circle><circle r="12" cx="482" cy="399" fill="hsl(289, 15%, 26%)" opacity="0.82"></circle><circle r="7.5" cx="227" cy="322" fill="hsl(207, 15%, 26%)" opacity="0.38"></circle><circle r="12.5" cx="482" cy="300" fill="hsl(289, 15%, 26%)" opacity="0.49"></circle><circle r="8" cx="221" cy="354" fill="hsl(197, 15%, 26%)" opacity="0.75"></circle><circle r="6.5" cx="51" cy="667" fill="hsl(101, 15%, 26%)" opacity="0.23"></circle><circle r="7.5" cx="533" cy="426" fill="hsl(248, 15%, 26%)" opacity="0.25"></circle><circle r="11.5" cx="627" cy="436" fill="hsl(198, 15%, 26%)" opacity="0.63"></circle><circle r="10.5" cx="91" cy="169" fill="hsl(134, 15%, 26%)" opacity="0.48"></circle><circle r="9.5" cx="162" cy="378" fill="hsl(159, 15%, 26%)" opacity="0.28"></circle><circle r="15.5" cx="609" cy="84" fill="hsl(226, 15%, 26%)" opacity="0.67"></circle><circle r="6" cx="107" cy="512" fill="hsl(134, 15%, 26%)" opacity="0.92"></circle><circle r="8.5" cx="196" cy="159" fill="hsl(200, 15%, 26%)" opacity="0.30"></circle><circle r="14.5" cx="627" cy="135" fill="hsl(235, 15%, 26%)" opacity="0.35"></circle><circle r="12" cx="482" cy="608" fill="hsl(289, 15%, 26%)" opacity="0.32"></circle><circle r="8" cx="80" cy="401" fill="hsl(118, 15%, 26%)" opacity="0.23"></circle><circle r="11.5" cx="172" cy="563" fill="hsl(166, 15%, 26%)" opacity="0.87"></circle><circle r="10.5" cx="438" cy="171" fill="hsl(280, 15%, 26%)" opacity="0.73"></circle><circle r="10.5" cx="336" cy="142" fill="hsl(248, 15%, 26%)" opacity="0.77"></circle><circle r="5" cx="90" cy="545" fill="hsl(126, 15%, 26%)" opacity="0.54"></circle><circle r="10" cx="493" cy="482" fill="hsl(279, 15%, 26%)" opacity="0.15"></circle><circle r="12" cx="455" cy="551" fill="hsl(306, 15%, 26%)" opacity="0.84"></circle><circle r="11" cx="425" cy="779" fill="hsl(320, 15%, 26%)" opacity="0.18"></circle><circle r="9" cx="516" cy="561" fill="hsl(258, 15%, 26%)" opacity="0.32"></circle><circle r="7.5" cx="59" cy="439" fill="hsl(101, 15%, 26%)" opacity="0.61"></circle><circle r="10.5" cx="357" cy="558" fill="hsl(310, 15%, 26%)" opacity="0.31"></circle><circle r="11.5" cx="523" cy="629" fill="hsl(258, 15%, 26%)" opacity="0.21"></circle><circle r="13" cx="768" cy="22" fill="hsl(247, 15%, 26%)" opacity="0.44"></circle><circle r="7" cx="32" cy="117" fill="hsl(93, 15%, 26%)" opacity="0.87"></circle><circle r="9" cx="335" cy="100" fill="hsl(163, 15%, 26%)" opacity="0.45"></circle><circle r="12" cx="681" cy="316" fill="hsl(199, 15%, 26%)" opacity="0.51"></circle><circle r="7" cx="714" cy="502" fill="hsl(201, 15%, 26%)" opacity="0.68"></circle><circle r="7" cx="306" cy="29" fill="hsl(82, 15%, 26%)" opacity="0.88"></circle><circle r="13.5" cx="238" cy="640" fill="hsl(217, 15%, 26%)" opacity="0.34"></circle><circle r="12" cx="233" cy="535" fill="hsl(207, 15%, 26%)" opacity="0.88"></circle><circle r="15.5" cx="641" cy="29" fill="hsl(251, 15%, 26%)" opacity="0.30"></circle><circle r="11.5" cx="469" cy="449" fill="hsl(298, 15%, 26%)" opacity="0.38"></circle><circle r="7.5" cx="261" cy="691" fill="hsl(228, 15%, 26%)" opacity="0.64"></circle><circle r="6" cx="265" cy="84" fill="hsl(179, 15%, 26%)" opacity="0.56"></circle><circle r="12" cx="705" cy="20" fill="hsl(260, 15%, 26%)" opacity="0.62"></circle><circle r="15.5" cx="448" cy="320" fill="hsl(312, 15%, 26%)" opacity="0.54"></circle><circle r="11.5" cx="524" cy="291" fill="hsl(258, 15%, 26%)" opacity="0.20"></circle><circle r="9" cx="298" cy="292" fill="hsl(262, 15%, 26%)" opacity="0.96"></circle><circle r="8" cx="545" cy="23" fill="hsl(171, 15%, 26%)" opacity="0.59"></circle><circle r="8.5" cx="784" cy="219" fill="hsl(202, 15%, 26%)" opacity="0.30"></circle><circle r="8" cx="22" cy="541" fill="hsl(72, 15%, 26%)" opacity="0.49"></circle><circle r="14.5" cx="713" cy="181" fill="hsl(217, 15%, 26%)" opacity="0.33"></circle><circle r="11.5" cx="249" cy="194" fill="hsl(217, 15%, 26%)" opacity="0.28"></circle><circle r="5.5" cx="531" cy="401" fill="hsl(248, 15%, 26%)" opacity="0.28"></circle><circle r="8.5" cx="642" cy="685" fill="hsl(197, 15%, 26%)" opacity="0.34"></circle><circle r="10" cx="386" cy="450" fill="hsl(319, 15%, 26%)" opacity="0.53"></circle><circle r="13" cx="387" cy="570" fill="hsl(319, 15%, 26%)" opacity="0.22"></circle><circle r="11.5" cx="456" cy="263" fill="hsl(306, 15%, 26%)" opacity="0.90"></circle><circle r="6" cx="36" cy="738" fill="hsl(81, 15%, 26%)" opacity="0.95"></circle><circle r="8.5" cx="206" cy="783" fill="hsl(188, 15%, 26%)" opacity="0.13"></circle><circle r="15.5" cx="457" cy="735" fill="hsl(306, 15%, 26%)" opacity="0.80"></circle><circle r="10" cx="189" cy="456" fill="hsl(180, 15%, 26%)" opacity="0.14"></circle><circle r="11" cx="512" cy="747" fill="hsl(269, 15%, 26%)" opacity="0.76"></circle><circle r="9" cx="512" cy="518" fill="hsl(269, 15%, 26%)" opacity="0.23"></circle><circle r="9.5" cx="273" cy="758" fill="hsl(239, 15%, 26%)" opacity="0.35"></circle><circle r="8" cx="254" cy="109" fill="hsl(208, 15%, 26%)" opacity="0.53"></circle><circle r="12.5" cx="529" cy="227" fill="hsl(248, 15%, 26%)" opacity="0.34"></circle><circle r="13" cx="775" cy="138" fill="hsl(263, 15%, 26%)" opacity="0.74"></circle><circle r="10" cx="120" cy="362" fill="hsl(140, 15%, 26%)" opacity="0.90"></circle><circle r="7.5" cx="150" cy="451" fill="hsl(153, 15%, 26%)" opacity="0.38"></circle><circle r="7.5" cx="734" cy="488" fill="hsl(202, 15%, 26%)" opacity="0.43"></circle><circle r="14" cx="382" cy="688" fill="hsl(319, 15%, 26%)" opacity="0.88"></circle><circle r="15.5" cx="339" cy="719" fill="hsl(302, 15%, 26%)" opacity="0.97"></circle><circle r="9" cx="193" cy="327" fill="hsl(180, 15%, 26%)" opacity="0.28"></circle><circle r="11.5" cx="418" cy="650" fill="hsl(320, 15%, 26%)" opacity="0.67"></circle><circle r="11.5" cx="549" cy="355" fill="hsl(238, 15%, 26%)" opacity="0.40"></circle><circle r="6.5" cx="248" cy="288" fill="hsl(217, 15%, 26%)" opacity="0.29"></circle><circle r="10" cx="764" cy="569" fill="hsl(202, 15%, 26%)" opacity="0.86"></circle><circle r="14" cx="482" cy="356" fill="hsl(289, 15%, 26%)" opacity="0.84"></circle><circle r="10" cx="301" cy="120" fill="hsl(211, 15%, 26%)" opacity="0.93"></circle><circle r="12" cx="587" cy="466" fill="hsl(213, 15%, 26%)" opacity="0.41"></circle><circle r="9" cx="273" cy="142" fill="hsl(233, 15%, 26%)" opacity="0.49"></circle><circle r="11" cx="325" cy="548" fill="hsl(284, 15%, 26%)" opacity="0.13"></circle><circle r="10" cx="89" cy="730" fill="hsl(126, 15%, 26%)" opacity="0.60"></circle><circle r="6.5" cx="228" cy="151" fill="hsl(220, 15%, 26%)" opacity="0.99"></circle><circle r="10" cx="498" cy="430" fill="hsl(279, 15%, 26%)" opacity="0.49"></circle><circle r="6.5" cx="31" cy="12" fill="hsl(215, 15%, 26%)" opacity="0.89"></circle><circle r="13" cx="725" cy="288" fill="hsl(201, 15%, 26%)" opacity="0.65"></circle><circle r="7" cx="90" cy="264" fill="hsl(126, 15%, 26%)" opacity="0.78"></circle><circle r="6.5" cx="17" cy="446" fill="hsl(72, 15%, 26%)" opacity="0.57"></circle><circle r="6" cx="105" cy="292" fill="hsl(134, 15%, 26%)" opacity="0.86"></circle><circle r="13" cx="589" cy="369" fill="hsl(207, 15%, 26%)" opacity="0.84"></circle><circle r="7.5" cx="18" cy="41" fill="hsl(146, 15%, 26%)" opacity="0.98"></circle><circle r="12.5" cx="621" cy="654" fill="hsl(199, 15%, 26%)" opacity="0.56"></circle><circle r="9" cx="200" cy="520" fill="hsl(180, 15%, 26%)" opacity="0.49"></circle><circle r="12.5" cx="601" cy="745" fill="hsl(203, 15%, 26%)" opacity="0.69"></circle><circle r="7" cx="100" cy="599" fill="hsl(126, 15%, 26%)" opacity="0.41"></circle><circle r="12.5" cx="705" cy="402" fill="hsl(200, 15%, 26%)" opacity="0.49"></circle><circle r="6.5" cx="15" cy="194" fill="hsl(72, 15%, 26%)" opacity="0.33"></circle><circle r="16" cx="411" cy="221" fill="hsl(322, 15%, 26%)" opacity="0.29"></circle><circle r="14" cx="559" cy="261" fill="hsl(228, 15%, 26%)" opacity="0.49"></circle><circle r="15.5" cx="330" cy="379" fill="hsl(294, 15%, 26%)" opacity="0.72"></circle><circle r="9.5" cx="487" cy="563" fill="hsl(289, 15%, 26%)" opacity="0.46"></circle><circle r="13" cx="439" cy="472" fill="hsl(312, 15%, 26%)" opacity="0.27"></circle><circle r="13.5" cx="652" cy="731" fill="hsl(197, 15%, 26%)" opacity="0.48"></circle><circle r="7.5" cx="133" cy="233" fill="hsl(147, 15%, 26%)" opacity="0.49"></circle><circle r="12" cx="490" cy="216" fill="hsl(279, 15%, 26%)" opacity="0.44"></circle><circle r="8" cx="552" cy="107" fill="hsl(194, 15%, 26%)" opacity="0.24"></circle><circle r="5" cx="13" cy="354" fill="hsl(72, 15%, 26%)" opacity="0.32"></circle><circle r="8.5" cx="60" cy="81" fill="hsl(151, 15%, 26%)" opacity="0.17"></circle><circle r="8" cx="453" cy="786" fill="hsl(306, 15%, 26%)" opacity="0.26"></circle><circle r="7" cx="220" cy="251" fill="hsl(197, 15%, 26%)" opacity="0.55"></circle><circle r="10.5" cx="613" cy="228" fill="hsl(199, 15%, 26%)" opacity="0.21"></circle><circle r="12" cx="347" cy="201" fill="hsl(302, 15%, 26%)" opacity="0.98"></circle><circle r="11" cx="552" cy="193" fill="hsl(228, 15%, 26%)" opacity="0.17"></circle><circle r="7.5" cx="228" cy="603" fill="hsl(207, 15%, 26%)" opacity="0.36"></circle><circle r="9.5" cx="782" cy="533" fill="hsl(202, 15%, 26%)" opacity="0.50"></circle><circle r="10.5" cx="726" cy="71" fill="hsl(289, 15%, 26%)" opacity="0.48"></circle><circle r="11" cx="777" cy="374" fill="hsl(202, 15%, 26%)" opacity="0.88"></circle><circle r="7" cx="360" cy="54" fill="hsl(85, 15%, 26%)" opacity="0.76"></circle><circle r="14" cx="399" cy="412" fill="hsl(322, 15%, 26%)" opacity="0.33"></circle><circle r="8" cx="551" cy="459" fill="hsl(228, 15%, 26%)" opacity="0.81"></circle><circle r="9.5" cx="746" cy="98" fill="hsl(292, 15%, 26%)" opacity="0.60"></circle><circle r="11" cx="719" cy="584" fill="hsl(201, 15%, 26%)" opacity="0.83"></circle><circle r="11.5" cx="708" cy="634" fill="hsl(200, 15%, 26%)" opacity="0.19"></circle><circle r="14" cx="142" cy="169" fill="hsl(166, 15%, 26%)" opacity="0.40"></circle><circle r="12" cx="704" cy="695" fill="hsl(200, 15%, 26%)" opacity="0.87"></circle><circle r="10.5" cx="376" cy="97" fill="hsl(151, 15%, 26%)" opacity="0.52"></circle><circle r="11" cx="773" cy="489" fill="hsl(202, 15%, 26%)" opacity="0.60"></circle><circle r="10" cx="575" cy="563" fill="hsl(213, 15%, 26%)" opacity="0.37"></circle><circle r="10.5" cx="673" cy="591" fill="hsl(198, 15%, 26%)" opacity="0.54"></circle><circle r="13" cx="280" cy="531" fill="hsl(251, 15%, 26%)" opacity="0.19"></circle><circle r="10" cx="529" cy="594" fill="hsl(248, 15%, 26%)" opacity="0.15"></circle><circle r="9" cx="25" cy="598" fill="hsl(72, 15%, 26%)" opacity="0.34"></circle><circle r="12" cx="463" cy="195" fill="hsl(298, 15%, 26%)" opacity="0.32"></circle><circle r="8.5" cx="542" cy="542" fill="hsl(238, 15%, 26%)" opacity="0.58"></circle><circle r="15" cx="401" cy="340" fill="hsl(322, 15%, 26%)" opacity="0.15"></circle><circle r="9" cx="562" cy="405" fill="hsl(228, 15%, 26%)" opacity="0.62"></circle><circle r="13.5" cx="371" cy="514" fill="hsl(315, 15%, 26%)" opacity="0.39"></circle><circle r="13" cx="286" cy="215" fill="hsl(251, 15%, 26%)" opacity="0.67"></circle><circle r="5" cx="449" cy="16" fill="hsl(68, 15%, 26%)" opacity="0.33"></circle><circle r="10.5" cx="682" cy="512" fill="hsl(199, 15%, 26%)" opacity="0.12"></circle><circle r="7" cx="752" cy="52" fill="hsl(285, 15%, 26%)" opacity="0.60"></circle><circle r="9" cx="192" cy="194" fill="hsl(180, 15%, 26%)" opacity="0.93"></circle><circle r="7.5" cx="520" cy="45" fill="hsl(141, 15%, 26%)" opacity="0.70"></circle><circle r="18" cx="343" cy="434" fill="hsl(302, 15%, 26%)" opacity="0.35"></circle><circle r="11.5" cx="518" cy="330" fill="hsl(258, 15%, 26%)" opacity="0.24"></circle><circle r="6.5" cx="253" cy="155" fill="hsl(232, 15%, 26%)" opacity="0.12"></circle><circle r="10.5" cx="565" cy="62" fill="hsl(192, 15%, 26%)" opacity="0.65"></circle><circle r="7" cx="146" cy="420" fill="hsl(153, 15%, 26%)" opacity="0.65"></circle><circle r="10.5" cx="702" cy="459" fill="hsl(200, 15%, 26%)" opacity="0.46"></circle><circle r="14.5" cx="771" cy="426" fill="hsl(202, 15%, 26%)" opacity="0.11"></circle><circle r="6.5" cx="43" cy="342" fill="hsl(91, 15%, 26%)" opacity="0.28"></circle><circle r="15" cx="727" cy="133" fill="hsl(272, 15%, 26%)" opacity="0.50"></circle><circle r="8" cx="542" cy="511" fill="hsl(238, 15%, 26%)" opacity="0.73"></circle><circle r="7.5" cx="506" cy="788" fill="hsl(269, 15%, 26%)" opacity="0.99"></circle><circle r="9.5" cx="419" cy="67" fill="hsl(103, 15%, 26%)" opacity="0.69"></circle><circle r="9" cx="81" cy="340" fill="hsl(118, 15%, 26%)" opacity="0.87"></circle><circle r="4.5" cx="260" cy="308" fill="hsl(228, 15%, 26%)" opacity="0.37"></circle><circle r="7.5" cx="25" cy="776" fill="hsl(72, 15%, 26%)" opacity="0.44"></circle><circle r="16.5" cx="193" cy="54" fill="hsl(232, 15%, 26%)" opacity="0.59"></circle><circle r="9" cx="483" cy="531" fill="hsl(289, 15%, 26%)" opacity="0.64"></circle><circle r="7.5" cx="543" cy="160" fill="hsl(219, 15%, 26%)" opacity="0.18"></circle><circle r="10.5" cx="748" cy="697" fill="hsl(202, 15%, 26%)" opacity="0.34"></circle><circle r="10.5" cx="386" cy="647" fill="hsl(319, 15%, 26%)" opacity="0.28"></circle><circle r="6" cx="44" cy="703" fill="hsl(91, 15%, 26%)" opacity="0.71"></circle><circle r="14" cx="458" cy="662" fill="hsl(306, 15%, 26%)" opacity="0.64"></circle><circle r="8" cx="526" cy="88" fill="hsl(173, 15%, 26%)" opacity="0.57"></circle><circle r="12.5" cx="647" cy="383" fill="hsl(197, 15%, 26%)" opacity="0.82"></circle><circle r="13" cx="201" cy="688" fill="hsl(188, 15%, 26%)" opacity="0.38"></circle><circle r="6" cx="525" cy="491" fill="hsl(248, 15%, 26%)" opacity="0.27"></circle><circle r="8.5" cx="742" cy="453" fill="hsl(202, 15%, 26%)" opacity="0.25"></circle><circle r="9.5" cx="782" cy="613" fill="hsl(202, 15%, 26%)" opacity="0.85"></circle><circle r="8" cx="299" cy="71" fill="hsl(143, 15%, 26%)" opacity="0.39"></circle><circle r="19" cx="505" cy="677" fill="hsl(269, 15%, 26%)" opacity="0.45"></circle><circle r="5.5" cx="278" cy="303" fill="hsl(251, 15%, 26%)" opacity="0.40"></circle><circle r="11" cx="451" cy="599" fill="hsl(306, 15%, 26%)" opacity="0.36"></circle><circle r="7.5" cx="123" cy="319" fill="hsl(140, 15%, 26%)" opacity="0.79"></circle><circle r="7.5" cx="117" cy="411" fill="hsl(140, 15%, 26%)" opacity="0.21"></circle><circle r="6" cx="44" cy="485" fill="hsl(91, 15%, 26%)" opacity="0.39"></circle><circle r="9" cx="106" cy="645" fill="hsl(134, 15%, 26%)" opacity="0.97"></circle><circle r="12.5" cx="406" cy="292" fill="hsl(322, 15%, 26%)" opacity="0.41"></circle><circle r="14" cx="636" cy="491" fill="hsl(198, 15%, 26%)" opacity="0.46"></circle><circle r="9" cx="283" cy="631" fill="hsl(251, 15%, 26%)" opacity="0.83"></circle><circle r="11" cx="663" cy="275" fill="hsl(198, 15%, 26%)" opacity="0.28"></circle><circle r="11" cx="105" cy="80" fill="hsl(203, 15%, 26%)" opacity="0.87"></circle><circle r="10" cx="290" cy="351" fill="hsl(262, 15%, 26%)" opacity="0.26"></circle><circle r="12" cx="328" cy="278" fill="hsl(294, 15%, 26%)" opacity="0.15"></circle><circle r="17.5" cx="292" cy="449" fill="hsl(262, 15%, 26%)" opacity="0.92"></circle><circle r="6.5" cx="20" cy="642" fill="hsl(72, 15%, 26%)" opacity="0.54"></circle><circle r="9" cx="783" cy="175" fill="hsl(235, 15%, 26%)" opacity="0.46"></circle><circle r="15.5" cx="384" cy="742" fill="hsl(319, 15%, 26%)" opacity="0.85"></circle><circle r="9" cx="596" cy="415" fill="hsl(207, 15%, 26%)" opacity="0.56"></circle><circle r="15" cx="367" cy="266" fill="hsl(315, 15%, 26%)" opacity="0.87"></circle><circle r="12" cx="715" cy="745" fill="hsl(201, 15%, 26%)" opacity="0.18"></circle><circle r="11.5" cx="486" cy="129" fill="hsl(207, 15%, 26%)" opacity="0.83"></circle><circle r="7" cx="787" cy="767" fill="hsl(202, 15%, 26%)" opacity="0.92"></circle><circle r="7.5" cx="172" cy="299" fill="hsl(166, 15%, 26%)" opacity="0.94"></circle><circle r="9" cx="783" cy="715" fill="hsl(202, 15%, 26%)" opacity="0.48"></circle><circle r="6.5" cx="228" cy="13" fill="hsl(183, 15%, 26%)" opacity="0.40"></circle><circle r="10.5" cx="381" cy="480" fill="hsl(319, 15%, 26%)" opacity="0.62"></circle><circle r="9.5" cx="85" cy="125" fill="hsl(147, 15%, 26%)" opacity="0.18"></circle><circle r="5.5" cx="348" cy="17" fill="hsl(41, 15%, 26%)" opacity="0.19"></circle><circle r="10.5" cx="290" cy="254" fill="hsl(262, 15%, 26%)" opacity="0.62"></circle><circle r="7.5" cx="626" cy="776" fill="hsl(198, 15%, 26%)" opacity="0.93"></circle><circle r="5.5" cx="15" cy="490" fill="hsl(72, 15%, 26%)" opacity="0.78"></circle><circle r="14" cx="594" cy="604" fill="hsl(207, 15%, 26%)" opacity="0.13"></circle><circle r="9" cx="239" cy="712" fill="hsl(217, 15%, 26%)" opacity="0.83"></circle><circle r="9" cx="214" cy="574" fill="hsl(197, 15%, 26%)" opacity="0.35"></circle><circle r="6.5" cx="652" cy="788" fill="hsl(197, 15%, 26%)" opacity="0.57"></circle><circle r="9.5" cx="695" cy="781" fill="hsl(200, 15%, 26%)" opacity="0.37"></circle><circle r="9" cx="205" cy="383" fill="hsl(188, 15%, 26%)" opacity="0.79"></circle><circle r="10" cx="258" cy="570" fill="hsl(228, 15%, 26%)" opacity="0.35"></circle><circle r="9" cx="520" cy="378" fill="hsl(258, 15%, 26%)" opacity="0.14"></circle><circle r="7.5" cx="39" cy="157" fill="hsl(94, 15%, 26%)" opacity="0.80"></circle><circle r="9.5" cx="54" cy="298" fill="hsl(101, 15%, 26%)" opacity="0.88"></circle><circle r="4" cx="9" cy="143" fill="hsl(60, 15%, 26%)" opacity="0.52"></circle><circle r="6.5" cx="778" cy="71" fill="hsl(287, 15%, 26%)" opacity="0.74"></circle><circle r="8.5" cx="219" cy="289" fill="hsl(197, 15%, 26%)" opacity="0.11"></circle><circle r="7.5" cx="789" cy="94" fill="hsl(289, 15%, 26%)" opacity="0.87"></circle><circle r="12" cx="290" cy="678" fill="hsl(262, 15%, 26%)" opacity="0.14"></circle><circle r="5.5" cx="74" cy="479" fill="hsl(110, 15%, 26%)" opacity="0.85"></circle><circle r="14.5" cx="378" cy="376" fill="hsl(319, 15%, 26%)" opacity="0.89"></circle><circle r="9" cx="99" cy="686" fill="hsl(126, 15%, 26%)" opacity="0.69"></circle><circle r="11.5" cx="421" cy="260" fill="hsl(320, 15%, 26%)" opacity="0.95"></circle><circle r="15" cx="119" cy="24" fill="hsl(279, 15%, 26%)" opacity="0.70"></circle><circle r="9" cx="592" cy="196" fill="hsl(207, 15%, 26%)" opacity="0.73"></circle><circle r="9.5" cx="617" cy="265" fill="hsl(199, 15%, 26%)" opacity="0.55"></circle><circle r="8.5" cx="61" cy="563" fill="hsl(101, 15%, 26%)" opacity="0.87"></circle><circle r="15.5" cx="425" cy="702" fill="hsl(317, 15%, 26%)" opacity="0.32"></circle><circle r="14" cx="586" cy="514" fill="hsl(213, 15%, 26%)" opacity="0.45"></circle><circle r="7" cx="515" cy="454" fill="hsl(258, 15%, 26%)" opacity="0.55"></circle><circle r="13.5" cx="201" cy="116" fill="hsl(218, 15%, 26%)" opacity="0.62"></circle><circle r="12" cx="158" cy="767" fill="hsl(159, 15%, 26%)" opacity="0.12"></circle><circle r="8" cx="758" cy="736" fill="hsl(202, 15%, 26%)" opacity="0.65"></circle><circle r="9.5" cx="621" cy="307" fill="hsl(199, 15%, 26%)" opacity="0.95"></circle><circle r="11.5" cx="145" cy="719" fill="hsl(153, 15%, 26%)" opacity="0.91"></circle><circle r="7" cx="272" cy="42" fill="hsl(141, 15%, 26%)" opacity="0.47"></circle><circle r="8" cx="20" cy="80" fill="hsl(104, 15%, 26%)" opacity="0.54"></circle><circle r="14" cx="335" cy="594" fill="hsl(294, 15%, 26%)" opacity="0.89"></circle><circle r="10" cx="169" cy="228" fill="hsl(166, 15%, 26%)" opacity="0.64"></circle><circle r="14.5" cx="679" cy="62" fill="hsl(273, 15%, 26%)" opacity="0.45"></circle><circle r="14.5" cx="237" cy="481" fill="hsl(207, 15%, 26%)" opacity="0.60"></circle><circle r="14" cx="365" cy="316" fill="hsl(315, 15%, 26%)" opacity="0.46"></circle><circle r="4" cx="18" cy="413" fill="hsl(72, 15%, 26%)" opacity="0.58"></circle><circle r="16" cx="319" cy="500" fill="hsl(284, 15%, 26%)" opacity="0.11"></circle><circle r="10.5" cx="781" cy="280" fill="hsl(202, 15%, 26%)" opacity="0.22"></circle><circle r="10" cx="152" cy="666" fill="hsl(159, 15%, 26%)" opacity="0.75"></circle><circle r="13" cx="315" cy="641" fill="hsl(284, 15%, 26%)" opacity="0.54"></circle><circle r="14" cx="324" cy="332" fill="hsl(284, 15%, 26%)" opacity="0.85"></circle><circle r="8.5" cx="98" cy="225" fill="hsl(126, 15%, 26%)" opacity="0.46"></circle><circle r="4.5" cx="251" cy="319" fill="hsl(228, 15%, 26%)" opacity="0.64"></circle><circle r="14.5" cx="412" cy="609" fill="hsl(322, 15%, 26%)" opacity="0.20"></circle><circle r="10" cx="479" cy="772" fill="hsl(289, 15%, 26%)" opacity="0.40"></circle><circle r="8.5" cx="587" cy="160" fill="hsl(214, 15%, 26%)" opacity="0.76"></circle><circle r="10.5" cx="752" cy="199" fill="hsl(202, 15%, 26%)" opacity="0.20"></circle><circle r="7" cx="66" cy="611" fill="hsl(110, 15%, 26%)" opacity="0.67"></circle><circle r="5.5" cx="14" cy="687" fill="hsl(72, 15%, 26%)" opacity="0.95"></circle><circle r="8" cx="785" cy="667" fill="hsl(202, 15%, 26%)" opacity="0.16"></circle><circle r="10" cx="568" cy="705" fill="hsl(220, 15%, 26%)" opacity="0.58"></circle><circle r="7.5" cx="224" cy="224" fill="hsl(197, 15%, 26%)" opacity="0.85"></circle><circle r="7.5" cx="141" cy="540" fill="hsl(153, 15%, 26%)" opacity="0.63"></circle><circle r="6" cx="52" cy="379" fill="hsl(101, 15%, 26%)" opacity="0.11"></circle><circle r="8.5" cx="241" cy="49" fill="hsl(175, 15%, 26%)" opacity="0.28"></circle><circle r="8.5" cx="257" cy="259" fill="hsl(228, 15%, 26%)" opacity="0.39"></circle><circle r="17.5" cx="677" cy="113" fill="hsl(265, 15%, 26%)" opacity="0.83"></circle><circle r="11.5" cx="384" cy="782" fill="hsl(319, 15%, 26%)" opacity="0.87"></circle><circle r="17.5" cx="439" cy="379" fill="hsl(312, 15%, 26%)" opacity="0.94"></circle><circle r="6.5" cx="673" cy="684" fill="hsl(198, 15%, 26%)" opacity="0.77"></circle><circle r="8.5" cx="175" cy="495" fill="hsl(173, 15%, 26%)" opacity="0.41"></circle><circle r="6" cx="15" cy="299" fill="hsl(72, 15%, 26%)" opacity="0.53"></circle><circle r="12.5" cx="421" cy="561" fill="hsl(320, 15%, 26%)" opacity="0.29"></circle><circle r="5.5" cx="534" cy="474" fill="hsl(248, 15%, 26%)" opacity="0.83"></circle><circle r="14" cx="651" cy="180" fill="hsl(209, 15%, 26%)" opacity="0.58"></circle></svg>